<svg width="28" height="24" viewBox="0 0 28 24" fill="none" xmlns="http://www.w3.org/2000/svg">
<path d="M19.9733 9.88349C19.4533 10.4035 18.5867 10.4035 18.0667 9.88349L12.1067 3.93682L2.70666 13.3235L1.82666 12.4835C0.266662 10.9235 0.266662 8.39016 1.82666 6.83016L7.47999 1.17682C9.03999 -0.383176 11.5733 -0.383176 13.1333 1.17682L19.9733 8.00349C20.4933 8.52349 20.4933 9.36349 19.9733 9.88349ZM20.9067 7.05682C21.9467 8.09682 21.9467 9.79016 20.9067 10.8302C19.2133 12.5235 17.4267 11.1235 17.1333 10.8302L12.12 5.81682L4.69333 13.2435C4.17333 13.7635 4.17333 14.6035 4.69333 15.1235C5.21333 15.6435 6.05333 15.6435 6.58666 15.1235L12.7467 8.96349L13.6933 9.91016L7.53333 16.0702C7.01333 16.5902 7.01333 17.4302 7.53333 17.9502C8.05333 18.4702 8.89333 18.4702 9.42666 17.9502L15.5867 11.7902L16.5333 12.7368L10.3733 18.8968C9.85333 19.4168 9.85333 20.2568 10.3733 20.7768C10.8933 21.2968 11.7333 21.2968 12.2533 20.7768L18.4133 14.6168L19.36 15.5635L13.2 21.7235C12.68 22.2435 12.68 23.0835 13.2 23.6035C13.72 24.1235 14.56 24.1235 15.08 23.6035L26.1733 12.4835C27.7333 10.9235 27.7333 8.39016 26.1733 6.83016L20.52 1.17682C18.9867 -0.356509 16.5067 -0.383176 14.9467 1.09682L20.9067 7.05682Z" fill="currentColor"/>
</svg>
