<svg width="30" height="20" viewBox="0 0 30 20" fill="none" xmlns="http://www.w3.org/2000/svg">
<path d="M20.3359 8.66602C22.5493 8.66602 24.3226 6.87935 24.3226 4.66602C24.3226 2.45268 22.5493 0.666016 20.3359 0.666016C18.1226 0.666016 16.3359 2.45268 16.3359 4.66602C16.3359 6.87935 18.1226 8.66602 20.3359 8.66602ZM9.66927 8.66602C11.8826 8.66602 13.6559 6.87935 13.6559 4.66602C13.6559 2.45268 11.8826 0.666016 9.66927 0.666016C7.45594 0.666016 5.66927 2.45268 5.66927 4.66602C5.66927 6.87935 7.45594 8.66602 9.66927 8.66602ZM9.66927 11.3327C6.5626 11.3327 0.335938 12.8927 0.335938 15.9993V19.3327H19.0026V15.9993C19.0026 12.8927 12.7759 11.3327 9.66927 11.3327ZM20.3359 11.3327C19.9493 11.3327 19.5093 11.3593 19.0426 11.3993C20.5893 12.5193 21.6693 14.026 21.6693 15.9993V19.3327H29.6693V15.9993C29.6693 12.8927 23.4426 11.3327 20.3359 11.3327Z" fill="currentColor"/>
</svg>
