<svg width="26" height="26" viewBox="0 0 26 26" fill="none" xmlns="http://www.w3.org/2000/svg">
<path d="M22.5175 14.2526C22.5709 13.8526 22.5975 13.4392 22.5975 12.9992C22.5975 12.5726 22.5709 12.1459 22.5042 11.7459L25.2109 9.63922C25.4509 9.45255 25.5175 9.09255 25.3709 8.82589L22.8109 4.39922C22.6509 4.10589 22.3175 4.01255 22.0242 4.10589L18.8375 5.38589C18.1709 4.87922 17.4642 4.45255 16.6775 4.13255L16.1975 0.745885C16.1442 0.425885 15.8775 0.199219 15.5575 0.199219H10.4375C10.1175 0.199219 9.86421 0.425885 9.81088 0.745885L9.33088 4.13255C8.54421 4.45255 7.82421 4.89255 7.17088 5.38589L3.98421 4.10589C3.69088 3.99922 3.35754 4.10589 3.19754 4.39922L0.650875 8.82589C0.490875 9.10589 0.544209 9.45255 0.810875 9.63922L3.51754 11.7459C3.45088 12.1459 3.39754 12.5859 3.39754 12.9992C3.39754 13.4126 3.42421 13.8526 3.49088 14.2526L0.784209 16.3592C0.544209 16.5459 0.477542 16.9059 0.624209 17.1726L3.18421 21.5992C3.34421 21.8926 3.67754 21.9859 3.97088 21.8926L7.15754 20.6126C7.82421 21.1192 8.53088 21.5459 9.31754 21.8659L9.79754 25.2526C9.86421 25.5726 10.1175 25.7992 10.4375 25.7992H15.5575C15.8775 25.7992 16.1442 25.5726 16.1842 25.2526L16.6642 21.8659C17.4509 21.5459 18.1709 21.1192 18.8242 20.6126L22.0109 21.8926C22.3042 21.9992 22.6375 21.8926 22.7975 21.5992L25.3575 17.1726C25.5175 16.8792 25.4509 16.5459 25.1975 16.3592L22.5175 14.2526ZM12.9975 17.7992C10.3575 17.7992 8.19754 15.6392 8.19754 12.9992C8.19754 10.3592 10.3575 8.19922 12.9975 8.19922C15.6375 8.19922 17.7975 10.3592 17.7975 12.9992C17.7975 15.6392 15.6375 17.7992 12.9975 17.7992Z" fill="currentColor"/>
</svg>
